<svg width="400" height="400" viewBox="0 0 400 400" fill="none" xmlns="http://www.w3.org/2000/svg">
    <rect width="400" height="400" rx="80" fill="white"/>
    <path d="M332.326 299.187L275.189 207.995C273.531 205.349 269.346 206.697 269.449 209.818C271.16 261.89 257.149 288.054 201.958 304.147C198.461 305.166 199.133 311.435 202.775 311.435H325.547C331.835 311.435 335.665 304.515 332.326 299.187Z"
          fill="url(#paint0_linear_15_18)"/>
    <path d="M67.674 299.187L193.232 98.8009C196.364 93.8023 203.645 93.7968 206.784 98.7905L256.917 178.529C258.691 181.35 258.496 185.025 256.466 187.668C184.703 281.092 139.689 307.912 74.4549 311.098C68.1749 311.404 64.3356 304.515 67.674 299.187Z"
          fill="url(#paint1_linear_15_18)"/>
    <defs>
        <linearGradient id="paint0_linear_15_18" x1="255.387" y1="197.832" x2="255.387" y2="311.435"
                        gradientUnits="userSpaceOnUse">
            <stop stop-color="#097B80"/>
            <stop offset="1" stop-color="#075B5E"/>
        </linearGradient>
        <linearGradient id="paint1_linear_15_18" x1="159.933" y1="88" x2="159.933" y2="311.434"
                        gradientUnits="userSpaceOnUse">
            <stop stop-color="#097B80"/>
            <stop offset="1" stop-color="#075B5E"/>
        </linearGradient>
    </defs>
</svg>
